<?xml version="1.0" standalone="no"?>
<!DOCTYPE svg PUBLIC "-//W3C//DTD SVG 20010904//EN"
 "http://www.w3.org/TR/2001/REC-SVG-20010904/DTD/svg10.dtd">
<svg version="1.0" xmlns="http://www.w3.org/2000/svg"
 width="300.000000pt" height="300.000000pt" viewBox="0 0 300.000000 300.000000"
 preserveAspectRatio="xMidYMid meet">

<g transform="translate(0.000000,300.000000) scale(0.100000,-0.100000)"
fill="#000000" stroke="none">
<path d="M1472 1878 c-18 -18 -14 -28 12 -28 13 0 26 -7 30 -15 6 -17 36 -21
36 -4 0 5 -4 7 -10 4 -5 -3 -10 -1 -10 5 0 6 -7 18 -15 26 -8 9 -15 11 -15 5
0 -6 -8 -11 -17 -11 -15 0 -16 2 -3 10 8 5 12 11 9 14 -3 3 -11 0 -17 -6z"/>
<path d="M567 1855 c-4 -11 -5 -139 -2 -285 2 -146 5 -349 5 -452 0 -174 1
-189 20 -208 15 -15 33 -20 69 -20 120 0 131 23 131 272 0 150 2 180 13 168 7
-8 39 -71 71 -140 94 -204 100 -214 128 -228 21 -10 36 -10 75 0 59 15 63 18
81 65 18 48 30 802 13 830 -10 17 -13 -81 -15 -578 -1 -113 -5 -160 -14 -172
-7 -8 -12 -24 -10 -34 2 -12 -3 -18 -17 -19 -11 0 -33 -6 -48 -12 -39 -16 -77
2 -99 48 -9 19 -56 121 -105 226 l-88 191 -5 -246 c-3 -135 -9 -254 -13 -263
-9 -17 -82 -35 -122 -29 -46 6 -46 11 -47 342 -1 346 -9 575 -21 544z"/>
<path d="M982 1830 c0 -14 2 -19 5 -12 2 6 2 18 0 25 -3 6 -5 1 -5 -13z"/>
<path d="M1805 1806 c-7 -16 7 -337 20 -465 3 -24 0 -108 -6 -187 -13 -167 -7
-229 22 -245 12 -6 56 -11 99 -12 112 -2 112 -1 110 148 -2 66 -2 130 -1 142
1 25 50 56 73 48 15 -6 79 -144 110 -238 26 -76 56 -93 121 -71 51 17 87 47
86 72 -1 24 -17 70 -18 54 -1 -7 -26 -25 -56 -38 -51 -23 -58 -24 -78 -11 -14
9 -30 38 -41 73 -14 46 -89 224 -102 243 -5 7 -104 -21 -111 -32 -4 -6 -6 -77
-4 -158 l2 -146 -34 -6 c-19 -3 -62 -3 -95 0 l-61 6 -7 43 c-3 24 -1 110 5
192 6 81 9 164 7 183 -3 18 -8 88 -11 154 -11 198 -20 272 -30 251z"/>
<path d="M970 1784 c-1 -10 -7 -68 -14 -128 -11 -87 -11 -114 -2 -138 11 -26
14 -11 19 123 3 85 4 156 1 158 -2 2 -4 -4 -4 -15z"/>
<path d="M2401 1764 c0 -11 3 -14 6 -6 3 7 2 16 -1 19 -3 4 -6 -2 -5 -13z"/>
<path d="M1487 1750 c-43 -13 -55 -28 -63 -77 -8 -53 9 -82 25 -41 10 26 68
54 93 46 7 -3 17 -24 23 -49 14 -58 46 -75 107 -58 24 7 49 17 56 22 13 10 14
83 2 132 -7 28 -8 28 -9 -12 -1 -49 -21 -65 -82 -67 -47 -1 -50 2 -54 54 -4
58 -29 71 -98 50z"/>
<path d="M2034 1754 c-14 -6 -7 -234 8 -249 6 -6 9 22 7 80 l-3 90 52 3 c44 3
56 -1 76 -21 28 -28 36 -20 36 39 0 27 -6 36 -30 49 -27 14 -120 20 -146 9z"/>
<path d="M1221 1657 c-14 -84 -14 -88 9 -141 29 -69 90 -129 163 -160 131 -57
147 -69 150 -106 1 -20 2 -20 14 -4 17 23 16 47 -2 90 -11 28 -26 40 -72 60
-32 14 -76 34 -98 44 -94 42 -162 147 -151 232 10 70 0 59 -13 -15z"/>
<path d="M2410 1661 c0 -16 -6 -34 -14 -41 -8 -6 -12 -19 -9 -28 3 -9 2 -14
-2 -9 -5 4 -18 -8 -29 -27 -12 -18 -33 -52 -48 -74 -21 -31 -26 -48 -22 -72 4
-16 9 -30 13 -30 3 0 17 19 31 41 14 23 37 53 51 68 36 36 57 110 50 184 -2
29 -21 19 -21 -12z"/>
<path d="M1391 1243 c-1 -17 4 -35 9 -38 11 -7 11 9 0 45 -8 24 -8 24 -9 -7z"/>
<path d="M1761 1224 c-1 -34 -10 -68 -28 -105 -26 -49 -35 -58 -111 -97 -75
-39 -90 -43 -160 -45 -72 -2 -80 0 -124 31 -26 18 -63 53 -83 79 -29 38 -35
55 -36 97 l-1 51 -13 -31 c-21 -47 -6 -134 32 -187 39 -54 122 -113 171 -120
94 -16 276 48 321 112 45 63 63 171 41 241 -6 20 -8 15 -9 -26z"/>
<path d="M940 1195 c0 -5 5 -17 10 -25 5 -8 10 -10 10 -5 0 6 -5 17 -10 25 -5
8 -10 11 -10 5z"/>
</g>
</svg>
